HIERARCHY
ROOT Hips
{
    OFFSET   0.000000   0.000000   0.000000
    CHANNELS 6 Xposition Yposition Zposition Zrotation Xrotation Yrotation
    JOINT Chest
    {
        OFFSET   0.000000   8.007240   0.000000
        CHANNELS 3 Zrotation Xrotation Yrotation
        JOINT Chest2
        {
            OFFSET   0.000000  22.077100   0.000000
            CHANNELS 3 Zrotation Xrotation Yrotation
            JOINT Neck
            {
                OFFSET   0.000000  23.254800   0.000000
                CHANNELS 3 Zrotation Xrotation Yrotation
                JOINT Head
                {
                    OFFSET   0.000000  14.370000   1.956600
                    CHANNELS 3 Zrotation Xrotation Yrotation
                    End Site
                    {
                        OFFSET   0.000000  19.566000   0.000000
                    }
                }
            }
            JOINT LeftCollar
            {
                OFFSET   3.911900  19.017000  -0.467064
                CHANNELS 3 Zrotation Xrotation Yrotation
                JOINT LeftShoulder
                {
                    OFFSET  10.383700   0.000000   0.000000
                    CHANNELS 3 Zrotation Xrotation Yrotation
                    JOINT LeftElbow
                    {
                        OFFSET  26.662100   0.001476   0.000517
                        CHANNELS 3 Zrotation Xrotation Yrotation
                        JOINT LeftWrist
                        {
                            OFFSET  28.869000  -0.000025  -0.000106
                            CHANNELS 3 Zrotation Xrotation Yrotation
                            JOINT LeftFinger0
                            {
                                OFFSET   2.044660  -2.323460   3.252850
                                CHANNELS 3 Zrotation Xrotation Yrotation
                                JOINT LeftFinger01
                                {
                                    OFFSET   3.088130   0.000000   0.000000
                                    CHANNELS 3 Zrotation Xrotation Yrotation
                                    JOINT LeftFinger02
                                    {
                                        OFFSET   2.639460   0.000000   0.000000
                                        CHANNELS 3 Zrotation Xrotation Yrotation
                                        End Site
                                        {
                                            OFFSET   2.582190   0.000000   0.000000
                                        }
                                    }
                                }
                            }
                            JOINT LeftFinger1
                            {
                                OFFSET   8.364480   0.000000   3.252850
                                CHANNELS 3 Zrotation Xrotation Yrotation
                                JOINT LeftFinger11
                                {
                                    OFFSET   4.646930   0.000000   0.000000
                                    CHANNELS 3 Zrotation Xrotation Yrotation
                                    JOINT LeftFinger12
                                    {
                                        OFFSET   2.323460   0.000000   0.000000
                                        CHANNELS 3 Zrotation Xrotation Yrotation
                                        End Site
                                        {
                                            OFFSET   2.273050   0.000000   0.000000
                                        }
                                    }
                                }
                            }
                            JOINT LeftFinger2
                            {
                                OFFSET   8.364490   0.000015   1.078090
                                CHANNELS 3 Zrotation Xrotation Yrotation
                                JOINT LeftFinger21
                                {
                                    OFFSET   5.111620   0.000000   0.000000
                                    CHANNELS 3 Zrotation Xrotation Yrotation
                                    JOINT LeftFinger22
                                    {
                                        OFFSET   2.788160   0.000016   0.000000
                                        CHANNELS 3 Zrotation Xrotation Yrotation
                                        End Site
                                        {
                                            OFFSET   2.727660   0.000000   0.000000
                                        }
                                    }
                                }
                            }
                            JOINT LeftFinger3
                            {
                                OFFSET   7.899780   0.000017  -1.078090
                                CHANNELS 3 Zrotation Xrotation Yrotation
                                JOINT LeftFinger31
                                {
                                    OFFSET   4.646930   0.000000   0.000000
                                    CHANNELS 3 Zrotation Xrotation Yrotation
                                    JOINT LeftFinger32
                                    {
                                        OFFSET   2.323470   0.000000   0.000000
                                        CHANNELS 3 Zrotation Xrotation Yrotation
                                        End Site
                                        {
                                            OFFSET   2.273050   0.000000   0.000000
                                        }
                                    }
                                }
                            }
                            JOINT LeftFinger4
                            {
                                OFFSET   7.435090   0.000000  -3.252850
                                CHANNELS 3 Zrotation Xrotation Yrotation
                                JOINT LeftFinger41
                                {
                                    OFFSET   3.717550   0.000000   0.000000
                                    CHANNELS 3 Zrotation Xrotation Yrotation
                                    JOINT LeftFinger42
                                    {
                                        OFFSET   1.858770   0.000000   0.000000
                                        CHANNELS 3 Zrotation Xrotation Yrotation
                                        End Site
                                        {
                                            OFFSET   1.818440   0.000000   0.000000
                                        }
                                    }
                                }
                            }
                        }
                    }
                }
            }
            JOINT RightCollar
            {
                OFFSET  -3.911900  19.017000  -0.467063
                CHANNELS 3 Zrotation Xrotation Yrotation
                JOINT RightShoulder
                {
                    OFFSET -10.383700   0.000019   0.000000
                    CHANNELS 3 Zrotation Xrotation Yrotation
                    JOINT RightElbow
                    {
                        OFFSET -26.662100   0.001175   0.000102
                        CHANNELS 3 Zrotation Xrotation Yrotation
                        JOINT RightWrist
                        {
                            OFFSET -28.869000   0.000016  -0.000079
                            CHANNELS 3 Zrotation Xrotation Yrotation
                            JOINT RightFinger0
                            {
                                OFFSET  -2.044660  -2.323490   3.252850
                                CHANNELS 3 Zrotation Xrotation Yrotation
                                JOINT RightFinger01
                                {
                                    OFFSET  -3.088140   0.000000   0.000000
                                    CHANNELS 3 Zrotation Xrotation Yrotation
                                    JOINT RightFinger02
                                    {
                                        OFFSET  -2.639460   0.000000   0.000000
                                        CHANNELS 3 Zrotation Xrotation Yrotation
                                        End Site
                                        {
                                            OFFSET  -2.582190   0.000000   0.000000
                                        }
                                    }
                                }
                            }
                            JOINT RightFinger1
                            {
                                OFFSET  -8.364480   0.000000   3.252850
                                CHANNELS 3 Zrotation Xrotation Yrotation
                                JOINT RightFinger11
                                {
                                    OFFSET  -4.646930   0.000000   0.000000
                                    CHANNELS 3 Zrotation Xrotation Yrotation
                                    JOINT RightFinger12
                                    {
                                        OFFSET  -2.323470   0.000000   0.000000
                                        CHANNELS 3 Zrotation Xrotation Yrotation
                                        End Site
                                        {
                                            OFFSET  -2.273050   0.000000   0.000000
                                        }
                                    }
                                }
                            }
                            JOINT RightFinger2
                            {
                                OFFSET  -8.364480   0.000000   1.078090
                                CHANNELS 3 Zrotation Xrotation Yrotation
                                JOINT RightFinger21
                                {
                                    OFFSET  -5.111620   0.000000   0.000000
                                    CHANNELS 3 Zrotation Xrotation Yrotation
                                    JOINT RightFinger22
                                    {
                                        OFFSET  -2.788160   0.000000   0.000000
                                        CHANNELS 3 Zrotation Xrotation Yrotation
                                        End Site
                                        {
                                            OFFSET  -2.727660   0.000000   0.000000
                                        }
                                    }
                                }
                            }
                            JOINT RightFinger3
                            {
                                OFFSET  -7.899780   0.000000  -1.078090
                                CHANNELS 3 Zrotation Xrotation Yrotation
                                JOINT RightFinger31
                                {
                                    OFFSET  -4.646930   0.000000   0.000000
                                    CHANNELS 3 Zrotation Xrotation Yrotation
                                    JOINT RightFinger32
                                    {
                                        OFFSET  -2.323470   0.000000   0.000000
                                        CHANNELS 3 Zrotation Xrotation Yrotation
                                        End Site
                                        {
                                            OFFSET  -2.273050   0.000000   0.000000
                                        }
                                    }
                                }
                            }
                            JOINT RightFinger4
                            {
                                OFFSET  -7.435090   0.000000  -3.252850
                                CHANNELS 3 Zrotation Xrotation Yrotation
                                JOINT RightFinger41
                                {
                                    OFFSET  -3.717550   0.000000   0.000000
                                    CHANNELS 3 Zrotation Xrotation Yrotation
                                    JOINT RightFinger42
                                    {
                                        OFFSET  -1.858770   0.000000   0.000000
                                        CHANNELS 3 Zrotation Xrotation Yrotation
                                        End Site
                                        {
                                            OFFSET  -1.818440   0.000000   0.000000
                                        }
                                    }
                                }
                            }
                        }
                    }
                }
            }
        }
    }
    JOINT LeftHip
    {
        OFFSET   9.783040   0.000000   0.000000
        CHANNELS 3 Zrotation Xrotation Yrotation
        JOINT LeftKnee
        {
            OFFSET   0.000032 -41.789100  -0.002222
            CHANNELS 3 Zrotation Xrotation Yrotation
            JOINT LeftAnkle
            {
                OFFSET   0.000087 -41.133200  -0.000135
                CHANNELS 3 Zrotation Xrotation Yrotation
                JOINT LeftToe
                {
                    OFFSET   0.000000  -6.358960  14.674500
                    CHANNELS 3 Zrotation Xrotation Yrotation
                    End Site
                    {
                        OFFSET   0.000000   0.000000   3.913200
                    }
                }
            }
        }
    }
    JOINT RightHip
    {
        OFFSET  -9.783040   0.000000   0.000000
        CHANNELS 3 Zrotation Xrotation Yrotation
        JOINT RightKnee
        {
            OFFSET   0.000047 -41.789100  -0.000896
            CHANNELS 3 Zrotation Xrotation Yrotation
            JOINT RightAnkle
            {
                OFFSET  -0.000117 -41.133300  -0.000248
                CHANNELS 3 Zrotation Xrotation Yrotation
                JOINT RightToe
                {
                    OFFSET   0.000000  -6.358970  14.674500
                    CHANNELS 3 Zrotation Xrotation Yrotation
                    End Site
                    {
                        OFFSET   0.000000   0.000000   3.913200
                    }
                }
            }
        }
    }
}
MOTION
Frames: 6
Frame Time:   0.016667
 -0.593925  89.596700  -0.966286  -1.546050  -4.157930  -0.163111   0.976680   3.011760  -1.619720   2.042560   5.994200  -3.297480   0.918484  -0.629045   0.014943   1.517050  -1.274640   8.974060  -5.187860   3.514110  -0.638666 -69.889300  16.928300  -5.615030  -3.407560  -7.139330 -10.744000   6.088680 -18.689100  10.834300  37.466600  22.776700 -63.881400 -15.841500   0.006382   0.004391  -2.920730   0.004464   0.002301 -24.448600   5.171140 -11.209400 -20.420500   0.003243  -0.000000 -14.294300   0.002226  -0.001218 -26.624700   2.337540  -4.651430 -26.719600  -0.003409  -0.001837 -17.795200   0.002225  -0.001231 -27.033900  -0.160293   0.314239 -27.102700  -0.007297  -0.001618 -18.050400   0.001957  -0.001068 -29.644800  -0.195786   0.343955 -44.468000  -0.004299  -0.000142 -29.615700   0.001410  -0.001584   9.383510   0.305516   6.834110  69.597600   2.918530   0.469620   1.233650  -9.046730   7.027050 -13.040300 -16.121700  -0.593607 -44.361200  33.100400  71.843900  18.949800   0.001459  -0.002154   4.474890   0.001828  -0.002028  26.466300   4.299210   8.563150  21.917700  -0.002911   0.000091  15.352700   0.001071  -0.002889  25.553300   2.830970   5.897690  25.699200   0.006360  -0.006859  17.128700  -0.000852  -0.004632  26.983700   0.398716   0.782989  26.983400  -0.003890   0.003902  17.970900   0.002790  -0.000199  32.979400   0.478336   0.737033  49.478200  -0.003778   0.000473  32.949300  -0.001652   0.005878   2.001060   6.654300   2.024950   0.935709   0.318949   4.215430  -2.746220  -1.912730   1.407140   0.000000   0.000000   0.000000   1.010740   1.367660  -0.356903   1.115950   5.347250  -5.270780  -3.958950  -2.066750  -2.311220  -0.000000   0.000000   0.000000
 -0.608125  89.596700  -0.971994  -1.545330  -4.176990  -0.155760   0.976478   3.026050  -1.619890   2.042460   6.022770  -3.298200   0.923960  -0.632954   0.014902   1.522680  -1.282610   9.002520  -5.187620   3.508130  -0.642594 -69.868000  16.939900  -5.636310  -3.406980  -7.145120 -10.735100   6.086700 -18.692600  10.850600  37.451700  22.767400 -63.888500 -15.863000   0.006378   0.004389  -2.931500   0.004468   0.002296 -24.455900   5.156860 -11.179300 -20.423300   0.003245   0.000000 -14.296300   0.002224  -0.001217 -26.634500   2.332790  -4.640220 -26.728400  -0.003409  -0.001836 -17.801600   0.002225  -0.001229 -27.033700  -0.181689   0.356121 -27.117400  -0.007294  -0.001614 -18.060200   0.001956  -0.001065 -29.643100  -0.222082   0.390234 -44.465800  -0.004302  -0.000140 -29.614200   0.001406  -0.001578   9.383940   0.283199   6.833980  69.592200   2.924770   0.443599   1.248930  -9.049440   6.989300 -13.016400 -16.112200  -0.598942 -44.353400  33.103600  71.850200  18.961100   0.001461  -0.002156   4.480580   0.001823  -0.002031  26.471400   4.303270   8.569350  21.922300  -0.002912   0.000096  15.352600   0.001071  -0.002889  25.560900   2.840000   5.914380  25.707800   0.006361  -0.006856  17.128700  -0.000856  -0.004638  26.991800   0.405369   0.795793  26.995500  -0.003889   0.003904  17.979000   0.002789  -0.000198  32.979200   0.486182   0.749144  49.477200  -0.003779   0.000472  32.949300  -0.001650   0.005878   2.000430   6.674500   2.017240   0.941090   0.299738   4.215860  -2.748250  -1.893210   1.407280   0.000000   0.000000  -0.000000   1.036680   1.380600  -0.336448   1.093790   5.352160  -5.286240  -3.961120  -2.067950  -2.324760  -0.000000   0.000000   0.000000
 -0.632089  89.596700  -0.980896  -1.544260  -4.211170  -0.143096   0.976599   3.051710  -1.620090   2.043670   6.074070  -3.299070   0.935206  -0.642071   0.014844   1.536840  -1.301170   9.048400  -5.187110   3.498660  -0.650505 -69.831500  16.963900  -5.671390  -3.405870  -7.151020 -10.722000   6.078930 -18.695900  10.873000  37.430100  22.755600 -63.899000 -15.897000   0.006370   0.004377  -2.948500   0.004473   0.002292 -24.470100   5.142690 -11.142400 -20.431700   0.003247   0.000000 -14.302200   0.002219  -0.001213 -26.644800   2.325370  -4.623270 -26.738700  -0.003406  -0.001831 -17.808000   0.002224  -0.001225 -27.033400  -0.203084   0.398003 -27.137400  -0.007284  -0.001602 -18.073500   0.001955  -0.001058 -29.639500  -0.248378   0.436514 -44.460800  -0.004309  -0.000133 -29.610900   0.001397  -0.001565   9.383460   0.244980   6.833790  69.582300   2.938520   0.400028   1.275330  -9.056530   6.926540 -12.974500 -16.096700  -0.604259 -44.342900  33.109700  71.862400  18.981200   0.001464  -0.002158   4.490610   0.001819  -0.002037  26.478300   4.308930   8.577760  21.928600  -0.002912   0.000103  15.352500   0.001071  -0.002888  25.570700   2.852990   5.938630  25.718700   0.006361  -0.006853  17.128700  -0.000860  -0.004644  27.001700   0.415344   0.815029  27.013500  -0.003888   0.003910  17.991000   0.002787  -0.000198  32.978900   0.497945   0.767347  49.473500  -0.003783   0.000469  32.949300  -0.001648   0.005879   1.999840   6.710900   2.004460   0.949224   0.268525   4.216290  -2.755490  -1.862300   1.408350   0.000000   0.000000  -0.000000   1.082150   1.405190  -0.303525   1.055600   5.361060  -5.316110  -3.965460  -2.071270  -2.342400   0.000000   0.000000  -0.000000
 -0.651545  89.596600  -0.986820  -1.543550  -4.243730  -0.131707   0.977943   3.076280  -1.618490   2.047210   6.123190  -3.296400   0.947490  -0.654968   0.014815   1.556560  -1.327430   9.081870  -5.186470   3.492210  -0.659523 -69.798800  16.995400  -5.698800  -3.409120  -7.150860 -10.716200   6.061260 -18.689700  10.879800  37.424700  22.758300 -63.907800 -15.922100   0.006365   0.004341  -2.961050   0.004467   0.002292 -24.491100   5.145380 -11.136300 -20.448500   0.003249   0.000000 -14.314000   0.002210  -0.001208 -26.644400   2.320870  -4.614300 -26.740500  -0.003401  -0.001821 -17.807400   0.002222  -0.001219 -27.033800  -0.202802   0.397433 -27.142800  -0.007270  -0.001584 -18.077100   0.001953  -0.001045 -29.633900  -0.241955   0.425385 -44.452100  -0.004319  -0.000121 -29.605100   0.001382  -0.001545   9.380140   0.210761   6.833660  69.572100   2.957470   0.363421   1.299040  -9.068690   6.876780 -12.936000 -16.084900  -0.600664 -44.342300  33.117300  71.878200  19.001300   0.001461  -0.002159   4.500860   0.001824  -0.002040  26.480000   4.310610   8.579340  21.930800  -0.002913   0.000103  15.352400   0.001070  -0.002879  25.571700   2.858390   5.949480  25.720300   0.006361  -0.006858  17.129000  -0.000860  -0.004642  27.003000   0.420862   0.825787  27.021800  -0.003891   0.003921  17.996500   0.002786  -0.000190  32.974100   0.504455   0.777545  49.465100  -0.003796   0.000461  32.944600  -0.001646   0.005885   2.001870   6.748530   1.994530   0.954144   0.239728   4.212420  -2.769620  -1.836240   1.412800   0.000000   0.000000   0.000000   1.121600   1.432920  -0.278620   1.024310   5.368150  -5.351130  -3.971070  -2.077190  -2.346660  -0.000000   0.000000   0.000000
 -0.672044  89.596600  -0.991838  -1.543220  -4.278810  -0.120601   0.980439   3.102720  -1.614920   2.052680   6.176040  -3.290050   0.964651  -0.670711   0.014802   1.585290  -1.359330   9.113380  -5.185770   3.486140  -0.670533 -69.767400  17.027100  -5.725490  -3.415450  -7.148940 -10.710000   6.039840 -18.674100  10.882600  37.426100  22.763500 -63.913300 -15.941000   0.006357   0.004294  -2.970510   0.004462   0.002293 -24.510500   5.148020 -11.133400 -20.464800   0.003250  -0.000000 -14.325400   0.002199  -0.001204 -26.643200   2.316220  -4.605570 -26.740800  -0.003394  -0.001809 -17.806500   0.002220  -0.001210 -27.034600  -0.202520   0.396863 -27.145200  -0.007250  -0.001559 -18.078700   0.001950  -0.001029 -29.630000  -0.235298   0.413704 -44.446200  -0.004333  -0.000106 -29.601200   0.001362  -0.001518   9.376210   0.178300   6.833600  69.561600   2.978480   0.329217   1.322600  -9.081780   6.826940 -12.897200 -16.074100  -0.596363 -44.340700  33.123300  71.891500  19.019400   0.001458  -0.002159   4.509680   0.001833  -0.002043  26.480800   4.311950   8.580800  21.932100  -0.002914   0.000104  15.352400   0.001068  -0.002866  25.572800   2.862730   5.958170  25.721800   0.006359  -0.006863  17.130700  -0.000860  -0.004640  27.003900   0.425297   0.834453  27.030500  -0.003899   0.003933  18.002300   0.002785  -0.000178  32.967300   0.509679   0.785766  49.456300  -0.003812   0.000451  32.937900  -0.001644   0.005890   2.007340   6.783830   1.984350   0.957769   0.222934   4.204290  -2.787630  -1.821560   1.421110   0.000000   0.000000  -0.000000   1.166920   1.460840  -0.257156   0.987700   5.379280  -5.386030  -3.976440  -2.083800  -2.347900  -0.000000   0.000000   0.000000
 -0.694785  89.596600  -0.996587  -1.546670  -4.315330  -0.111569   0.984082   3.130250  -1.609770   2.060570   6.231060  -3.280530   0.990016  -0.688353   0.014823   1.627080  -1.394580   9.141830  -5.184950   3.479550  -0.685277 -69.739300  17.047300  -5.751070  -3.421940  -7.139020 -10.699500   6.020080 -18.645700  10.886100  37.436700  22.759000 -63.894400 -15.946700   0.006335   0.004256  -2.973370   0.004462   0.002303 -24.515500   5.146710 -11.127600 -20.468900   0.003251   0.000028 -14.328300   0.002190  -0.001226 -26.642700   2.308150  -4.590320 -26.737700  -0.003386  -0.001793 -17.805700   0.002219  -0.001200 -27.035000  -0.202804   0.397413 -27.149400  -0.007225  -0.001529 -18.081500   0.001947  -0.001008 -29.634100  -0.235026   0.413060 -44.452300  -0.004352  -0.000088 -29.605300   0.001337  -0.001484   9.374050   0.152782   6.833660  69.553200   2.998580   0.302307   1.343370  -9.090790   6.775790 -12.862200 -16.066900  -0.595514 -44.334500  33.124700  71.895500  19.030300   0.001458  -0.002167   4.513360   0.001838  -0.002051  26.483300   4.314680   8.586080  21.933900  -0.002919   0.000111  15.353400   0.001066  -0.002856  25.579300   2.868240   5.967840  25.728700   0.006353  -0.006862  17.135300  -0.000861  -0.004640  27.007900   0.428258   0.840124  27.045900  -0.003911   0.003941  18.012500   0.002786  -0.000169  32.964600   0.513123   0.791150  49.452000  -0.003821   0.000437  32.935100  -0.001643   0.005890   2.017600   6.803270   1.973210   0.959357   0.244734   4.193010  -2.809160  -1.826520   1.433900   0.000000   0.000000  -0.000000   1.223630   1.479190  -0.242762   0.939170   5.403920  -5.409760  -3.979210  -2.089180  -2.349690   0.000000   0.000000  -0.000000
